inDegrees=no
num_controls=7
num_derivatives=13
num_iterations=107
num_multipliers=7
num_parameters=0
num_slacks=7
num_states=26
objective=5.335783
objective_accelerations=0.736234
objective_balance=0.015318
objective_effort=0.177424
objective_height=4.290456
objective_ligament=0.116351
solver_duration=1177.883712
status=Solve_Succeeded
success=true
DataType=double
version=3
OpenSimVersion=4.4-2022-07-23-0e9fedc
endheader
time	/jointset/ground_pelvis/pelvis_tilt/value	/jointset/ground_pelvis/pelvis_tx/value	/jointset/ground_pelvis/pelvis_ty/value	/jointset/hip_l/hip_flexion_l/value	/jointset/hip_l/hip_adduction_l/value	/jointset/hip_l/hip_rotation_l/value	/jointset/back/lumbar_extension/value	/jointset/patellofemoral_l/patellar_flexion_l/value	/jointset/knee_l/knee_flexion_l/value	/jointset/knee_l/knee_adduction_l/value	/jointset/knee_l/knee_rotation_l/value	/jointset/ankle_l/ankle_angle_l/value	/jointset/subtalar_l/subtalar_angle_l/value	/jointset/ground_pelvis/pelvis_tilt/speed	/jointset/ground_pelvis/pelvis_tx/speed	/jointset/ground_pelvis/pelvis_ty/speed	/jointset/hip_l/hip_flexion_l/speed	/jointset/hip_l/hip_adduction_l/speed	/jointset/hip_l/hip_rotation_l/speed	/jointset/back/lumbar_extension/speed	/jointset/patellofemoral_l/patellar_flexion_l/speed	/jointset/knee_l/knee_flexion_l/speed	/jointset/knee_l/knee_adduction_l/speed	/jointset/knee_l/knee_rotation_l/speed	/jointset/ankle_l/ankle_angle_l/speed	/jointset/subtalar_l/subtalar_angle_l/speed	/forceset/tau_hip_flexion_l	/forceset/tau_hip_adduction_l	/forceset/tau_hip_rotation_l	/forceset/tau_knee_flexion_l	/forceset/tau_ankle_angle_l	/forceset/tau_subtalar_angle_l	/forceset/tau_lumbar_extension	lambda_cid13_p0	lambda_cid13_p1	lambda_cid13_p2	lambda_cid13_p3	lambda_cid13_p4	lambda_cid13_p5	lambda_cid14_p0	/jointset/ground_pelvis/pelvis_tilt/accel	/jointset/ground_pelvis/pelvis_tx/accel	/jointset/ground_pelvis/pelvis_ty/accel	/jointset/hip_l/hip_flexion_l/accel	/jointset/hip_l/hip_adduction_l/accel	/jointset/hip_l/hip_rotation_l/accel	/jointset/back/lumbar_extension/accel	/jointset/patellofemoral_l/patellar_flexion_l/accel	/jointset/knee_l/knee_flexion_l/accel	/jointset/knee_l/knee_adduction_l/accel	/jointset/knee_l/knee_rotation_l/accel	/jointset/ankle_l/ankle_angle_l/accel	/jointset/subtalar_l/subtalar_angle_l/accel	gamma_cid13_p0	gamma_cid13_p1	gamma_cid13_p2	gamma_cid13_p3	gamma_cid13_p4	gamma_cid13_p5	gamma_cid14_p0
0.5	-0.1925577505426755	0.02604795249238613	0.7710565290004998	0.9806043205945479	-0.3552382433171064	-0.01761790701118664	-0.4004726526210723	0.9716631624043691	0.9716631624044827	-0.003773135916429268	-0.1745193400398352	0.3151785903442576	0.1756625412835888	-0.7089953976082926	-0.1643414994535106	-0.5344129936585054	2.364083222287986	0.009980779402275144	0.5476016181770503	-0.3071295045866381	2.0279891176258	2.027989117625377	0.2721551176054179	0.0006105934732431916	0.5320034025173646	0.2441030416261379	-0.09139352333747625	0.01973748468732873	-0.003971965863873377	-0.2181529486181421	0.01979821452175714	0.02406915635804019	0.1092002678203975	-17.22306013285282	-5.878465948228092	-1.12472981766474	-3.092074880749378	-439.7779699266899	-74.75116997033406	-4.369081863877155	0.2759826824971665	0.4504471956009314	-0.4672801565992457	-1.151681146514321	0.1623366297881095	-0.5956577577723725	1.382167165088372	-1.591520301059779	-1.591520301059818	-0.2390375368241788	0.02804048625212882	-0.8334095194895509	0.1385471009159975	-2.349259705517214e-07	-1.970756476770396e-06	2.34656254790463e-06	-1.337992715238521e-07	-5.852990652997681e-07	-1.424888384187244e-06	-4.530577796546152e-07
0.51	-0.1996320954108684	0.02442729671324801	0.7656903531835103	1.004183089086593	-0.3551317746955765	-0.01217271455116357	-0.4034755346775928	0.9918600464982684	0.9918600464982	-0.001065835561123856	-0.1745144105554717	0.3204556864730393	0.1781079011709357	-0.7057714020481133	-0.1597703918988441	-0.5387000118284083	2.351346050891993	0.01129531133328611	0.5414623004104241	-0.2934278113621252	2.011104226838762	2.011104226838623	0.2692208609376501	0.0003972499319223387	0.5233362672900167	0.2449006993904941	-0.0958964333505645	0.02065455834086213	-0.004097167062928857	-0.2209689291622117	0.01833346968731288	0.02426190591041218	0.112675321346774	-17.87931389006046	-5.711368563560759	-1.306603791038691	-2.908575031992245	-443.0726776392902	-74.87413512955818	-3.772034334882561	0.3609109055521498	0.4632760545293391	-0.3911709790136313	-1.383425460843348	0.1133885783054333	-0.6196127556737967	1.367034704399182	-1.779425771107827	-1.779425771065203	-0.3335877687818422	-0.04259742442976178	-0.8954167432440617	0.0404112310210237	-1.048209992640244e-07	-2.659237044332105e-06	7.640383589320145e-07	-3.172563162963245e-07	-3.608185125250595e-07	-1.624591310389675e-06	-3.107601580988829e-07
0.52	-0.2066711397408904	0.02285291871348169	0.7602849555184561	1.02762474779974	-0.3550126853340261	-0.006788224062738091	-0.4063408269412112	1.011879591223462	1.011879591223471	0.001609528620342126	-0.1745109296365111	0.3256437010057698	0.1805592448592916	-0.7019352899769529	-0.1550859435791514	-0.5422573632714548	2.336661266507931	0.01250492740625015	0.535461223861101	-0.2796115460069384	1.992521243908451	1.992521243908599	0.2657678827886962	0.0003208803864014327	0.5141870833072101	0.2452998018278745	-0.1003993433637052	0.02157163199423246	-0.004222368257279671	-0.2237849097061634	0.01686872485282362	0.02445465546248758	0.1161503748731142	-18.53244903040845	-5.551735466344734	-1.479385666727927	-2.746214229692427	-446.3128890249374	-75.04507904559	-3.224830610337295	0.3984059846932732	0.4731153486062289	-0.3213468112279397	-1.541203744128234	0.1413534581789276	-0.5680095143119486	1.405081591223155	-1.931138729714057	-1.931138729714079	-0.3427818330614517	0.05543528541173311	-0.9298192705811866	0.05883603552067947	-5.053981192805565e-08	-2.88742684014515e-06	9.470698541306001e-08	-3.90989741376588e-07	-2.612652823026206e-07	-1.726371839971997e-06	-2.431789390046373e-07
0.53	-0.2136689887862369	0.02132595238529853	0.7548476689810726	1.050910111162384	-0.3548816448082228	-0.001465245509587318	-0.4090672799800509	1.031704996696858	1.031704996696799	0.004250256134487883	-0.1745083419538042	0.3307381249298645	0.183013218148666	-0.6975412197507798	-0.1502868357288266	-0.5450720612410005	2.320088482748194	0.0136917797574422	0.5291145232308523	-0.2656648448733465	1.972285561576962	1.972285561577087	0.2623417280867891	0.0002044024641304515	0.5046378949190656	0.2454409974568282	-0.1047764849209188	0.02220938044173947	-0.004390535774436603	-0.2270049037215371	0.01578889724864162	0.02466385367059021	0.1195332747862101	-19.07062797730193	-5.412410783714913	-1.656882964974832	-2.69196880866891	-449.7450902754895	-75.32791537401441	-2.726259126210543	0.4738865611865232	0.4862955088739754	-0.2423906401395525	-1.763768263454166	0.1058861737740252	-0.6712381118550249	1.391596907603828	-2.110884827488962	-2.110884827492584	-0.3483376233416562	-0.04417290926105749	-0.9765702780961157	-0.01581240732279994	-2.034522696746596e-08	-2.952861321293371e-06	-2.71101964812261e-07	-4.255582975003109e-07	-1.997069370311221e-07	-1.757162783520601e-06	-2.01493268985312e-07
0.54	-0.2206201013253895	0.01984757453674293	0.7493860635939292	1.074020056173126	-0.3547390287488794	0.003793618482427588	-0.4116538395009168	1.051319824978412	1.05131982497828	0.006855561034533661	-0.1745067157659852	0.3357352366390454	0.1854670886475495	-0.6925879887403553	-0.1453682476536422	-0.5471211332234311	2.301577596126081	0.0148200341159241	0.5226383116216886	-0.2516328424126734	1.950405805540574	1.950405805540676	0.2586833600014785	0.0001285814132790303	0.4947246403243301	0.2452792437295796	-0.1091536264780901	0.02284712888968336	-0.004558703293337349	-0.230224897736882	0.01470906964460448	0.02487305187939743	0.1229161746993102	-19.60684644099729	-5.280765557904739	-1.824777141378898	-2.653767999836573	-453.1468438003582	-75.6463858140184	-2.274922719379844	0.5102381415433072	0.4970113935781378	-0.1682216138048929	-1.928824316603789	0.1296338596367184	-0.5939117100950271	1.422141856639472	-2.259953470693823	-2.259953470693829	-0.3892245097422243	0.06356665969550664	-1.00263251189939	-0.001753835719848044	-1.679964889027473e-08	-2.838226092599656e-06	-3.010988722446216e-07	-4.167955092465843e-07	-1.801854857478986e-07	-1.709412057414877e-06	-1.884579936871755e-07
0.55	-0.2275189850817074	0.0184188647538148	0.7439077954330452	1.096935529605315	-0.3545853326392432	0.008986853002806649	-0.414099734649467	1.070707867204024	1.070707867203945	0.009423587475048451	-0.1745056412665686	0.3406314590768587	0.1879179249908021	-0.6870975734840493	-0.1403643030418459	-0.5484031022123673	2.281210796732619	0.01591323393957583	0.51595203937884	-0.2375485279579604	1.926943214606892	1.926943214606871	0.2549259201844591	7.976173897985227e-05	0.4844627629330809	0.244839835741847	-0.1136059113230454	0.02330867226340127	-0.00479197444964945	-0.233244431533481	0.01313824062867168	0.02515717847731676	0.1262887814578546	-20.29961274107306	-5.184799772444031	-1.952088545232187	-2.43058882422905	-456.5890969163069	-76.04295263639192	-1.869358355377073	0.5821064085910971	0.5034144752777259	-0.08880893778935571	-2.136564826114796	0.09849657624062259	-0.7146887447726021	1.401225140904851	-2.428289381348523	-2.428289381367277	-0.3687886998344029	-0.04024592611255479	-1.046649647310497	-0.07178690617084854	-1.718949466238284e-08	-2.645878677194899e-06	-2.672995099561094e-07	-3.930420427593263e-07	-1.672229139690109e-07	-1.611134989638333e-06	-1.775173791621328e-07
0.5600000000000001	-0.2343602320472669	0.01704046011306282	0.7384205827030017	1.119638143628486	-0.3544208378248727	0.01411148404811523	-0.416404856873266	1.089853508024972	1.089853508024941	0.0119540825208179	-0.1745052828929309	0.3454233258818449	0.1903630167290043	-0.681060630591096	-0.1353072192184141	-0.5489100470553768	2.259005714323206	0.01697977506361546	0.5089176166003007	-0.2234782574625262	1.901925524607488	1.901925524607344	0.2511770810813707	-1.464374011286921e-05	0.4738535137589275	0.2441303227192931	-0.118058196168094	0.02377021563737283	-0.005025245607151613	-0.236263965330079	0.01156741161284036	0.02544130507567194	0.1296613882162977	-20.99107373889093	-5.096632560872025	-2.069510639405893	-2.220655309124957	-460.0160001051732	-76.4757170181519	-1.507819726346309	0.6195436688725847	0.5076392359052043	-0.01321678461957117	-2.296480919794075	0.1243021197142284	-0.6635418172332351	1.419333064783791	-2.570973283838307	-2.570973283838309	-0.3875043669560245	0.05444949873676432	-1.072106868480287	-0.05577484268410401	-2.230184905365004e-08	-2.360276637736895e-06	-1.569446240025522e-07	-3.512997623918311e-07	-1.621309975953258e-07	-1.452226311856806e-06	-1.690903575648025e-07
